<mxfile host="65bd71144e">
    <diagram id="3yHFm8MGEfXHyI14O7nN" name="Page-1">
        <mxGraphModel dx="1085" dy="916" grid="1" gridSize="10" guides="1" tooltips="0" connect="1" arrows="1" fold="1" page="1" pageScale="1" pageWidth="827" pageHeight="1169" math="0" shadow="0">
            <root>
                <mxCell id="0"/>
                <mxCell id="1" parent="0"/>
                <mxCell id="2" value="Pool" style="swimlane;html=1;childLayout=stackLayout;resizeParent=1;resizeParentMax=0;horizontal=0;startSize=20;horizontalStack=0;whiteSpace=wrap;" parent="1" vertex="1">
                    <mxGeometry x="90" y="390" width="660" height="600" as="geometry"/>
                </mxCell>
                <mxCell id="3" value="Lane 1" style="swimlane;html=1;startSize=20;horizontal=0;" parent="2" vertex="1">
                    <mxGeometry x="20" width="640" height="120" as="geometry"/>
                </mxCell>
                <mxCell id="16" value="" style="points=[[0.145,0.145,0],[0.5,0,0],[0.855,0.145,0],[1,0.5,0],[0.855,0.855,0],[0.5,1,0],[0.145,0.855,0],[0,0.5,0]];shape=mxgraph.bpmn.event;html=1;verticalLabelPosition=bottom;labelBackgroundColor=#ffffff;verticalAlign=top;align=center;perimeter=ellipsePerimeter;outlineConnect=0;aspect=fixed;outline=standard;symbol=message;shadow=0;" vertex="1" parent="3">
                    <mxGeometry x="80" y="30" width="50" height="50" as="geometry"/>
                </mxCell>
                <mxCell id="4" value="Lane 2" style="swimlane;html=1;startSize=20;horizontal=0;" parent="2" vertex="1">
                    <mxGeometry x="20" y="120" width="640" height="120" as="geometry"/>
                </mxCell>
                <mxCell id="24" value="" style="edgeStyle=none;html=1;" edge="1" parent="4" source="17" target="23">
                    <mxGeometry relative="1" as="geometry"/>
                </mxCell>
                <mxCell id="8" value="Lane 3" style="swimlane;html=1;startSize=20;horizontal=0;" parent="2" vertex="1">
                    <mxGeometry x="20" y="240" width="640" height="120" as="geometry"/>
                </mxCell>
                <mxCell id="25" value="" style="rhombus;whiteSpace=wrap;html=1;verticalAlign=top;labelBackgroundColor=#ffffff;" vertex="1" parent="8">
                    <mxGeometry x="65" y="35" width="80" height="80" as="geometry"/>
                </mxCell>
                <mxCell id="6" value="Lane 3" style="swimlane;html=1;startSize=20;horizontal=0;" parent="2" vertex="1">
                    <mxGeometry x="20" y="360" width="640" height="120" as="geometry"/>
                </mxCell>
                <mxCell id="5" value="Lane 3" style="swimlane;html=1;startSize=20;horizontal=0;" parent="2" vertex="1">
                    <mxGeometry x="20" y="480" width="640" height="120" as="geometry"/>
                </mxCell>
                <mxCell id="19" style="edgeStyle=none;html=1;exitX=0.5;exitY=1;exitDx=0;exitDy=0;exitPerimeter=0;" edge="1" parent="2" source="16" target="17">
                    <mxGeometry relative="1" as="geometry"/>
                </mxCell>
                <mxCell id="26" value="" style="edgeStyle=none;html=1;" edge="1" parent="2" source="17" target="25">
                    <mxGeometry relative="1" as="geometry"/>
                </mxCell>
                <mxCell id="21" value="Untitled Layer" style="" parent="0"/>
                <mxCell id="17" value="" style="points=[[0.145,0.145,0],[0.5,0,0],[0.855,0.145,0],[1,0.5,0],[0.855,0.855,0],[0.5,1,0],[0.145,0.855,0],[0,0.5,0]];shape=mxgraph.bpmn.event;html=1;verticalLabelPosition=bottom;labelBackgroundColor=#ffffff;verticalAlign=top;align=center;perimeter=ellipsePerimeter;outlineConnect=0;aspect=fixed;outline=end;symbol=message;" vertex="1" parent="21">
                    <mxGeometry x="190" y="550" width="50" height="50" as="geometry"/>
                </mxCell>
                <mxCell id="23" value="" style="whiteSpace=wrap;html=1;verticalAlign=top;labelBackgroundColor=#ffffff;" vertex="1" parent="21">
                    <mxGeometry x="285" y="545" width="120" height="60" as="geometry"/>
                </mxCell>
            </root>
        </mxGraphModel>
    </diagram>
</mxfile>